<svg width="55" height="55" viewBox="0 0 55 55" fill="none" xmlns="http://www.w3.org/2000/svg">
<path d="M55 27.5C55 42.6878 42.6878 55 27.5 55C12.3122 55 0 42.6878 0 27.5C0 12.3122 12.3122 0 27.5 0C42.6878 0 55 12.3122 55 27.5Z" fill="#353941"/>
<path d="M35.4444 53.5694C29.3333 55.7429 23.2426 54.9477 20.8446 54.359C22.8639 54.5608 22.6957 51.1631 22.3592 49.439C16.5534 50.5744 14.2815 47.0421 13.6505 45.276C13.1456 43.863 11.6731 42.3324 11 41.7437C12.9184 41.34 13.987 41.9119 14.2815 42.2483C18.5728 47.1683 20.8446 46.159 21.9805 46.0329C22.8837 45.9326 22.9481 43.9303 22.8639 42.879C8.02123 39.3466 11.3786 26.6052 14.9126 23.4513C13.6505 21.0545 14.3236 17.9426 15.165 16.5129C18.598 16.311 21.1391 18.5313 21.9805 19.6667C26.928 17.951 31.783 18.9519 33.5921 19.6667C35.1066 17.1436 38.7668 16.5129 40.4076 16.5129C41.9221 19.036 41.291 22.1898 40.7862 23.4513C47.0969 29.2545 43.9415 41.4913 32.8348 42.879C33.5921 45.0236 32.8348 48.1774 33.2134 51.4574C33.5163 54.0814 34.8333 53.5694 35.4444 53.5694Z" fill="white"/>
</svg>
