<svg width="55" height="55" viewBox="0 0 55 55" fill="none" xmlns="http://www.w3.org/2000/svg">
<rect x="7.33301" y="9.77832" width="40.3333" height="34.2222" fill="white"/>
<path d="M35.6963 14.6309H19.3038C16.6873 14.6309 14.5586 16.7596 14.5586 19.3761V35.7686C14.5586 38.3851 16.6873 40.5144 19.3038 40.5144H35.6963C38.3128 40.5144 40.4421 38.3857 40.4421 35.7686V19.3761C40.4421 16.7596 38.3134 14.6309 35.6963 14.6309ZM27.5001 36.0933C22.802 36.0933 18.9796 32.271 18.9796 27.5723C18.9796 22.8743 22.802 19.0519 27.5001 19.0519C32.1987 19.0519 36.0211 22.8743 36.0211 27.5723C36.0211 32.2703 32.1981 36.0933 27.5001 36.0933ZM36.295 20.8136C35.1828 20.8136 34.2784 19.9092 34.2784 18.7976C34.2784 17.6861 35.1828 16.7816 36.295 16.7816C37.4065 16.7816 38.311 17.6861 38.311 18.7976C38.311 19.9092 37.4065 20.8136 36.295 20.8136Z" fill="#353941"/>
<path d="M27.5005 22.6553C24.7885 22.6553 22.5801 24.8624 22.5801 27.5745C22.5801 30.2878 24.7885 32.4956 27.5005 32.4956C30.2138 32.4956 32.4204 30.2878 32.4204 27.5745C32.4204 24.863 30.2132 22.6553 27.5005 22.6553Z" fill="#353941"/>
<path d="M27.5 0C12.3128 0 0 12.3128 0 27.5C0 42.6872 12.3128 55 27.5 55C42.6872 55 55 42.6872 55 27.5C55 12.3128 42.6872 0 27.5 0ZM44.042 35.7704C44.042 40.3728 40.2987 44.1162 35.6963 44.1162H19.3037C14.7019 44.1162 10.958 40.3728 10.958 35.7704V19.3779C10.958 14.7761 14.7019 11.0321 19.3037 11.0321H35.6963C40.2987 11.0321 44.042 14.7761 44.042 19.3779V35.7704Z" fill="#353941"/>
</svg>
