<svg width="55" height="55" viewBox="0 0 55 55" fill="none" xmlns="http://www.w3.org/2000/svg">
<rect width="55" height="55" rx="27.5" fill="#353941"/>
<path d="M11 22C11 16.6843 15.3093 12.375 20.625 12.375H34.375C39.6907 12.375 44 16.6843 44 22V28.875C44 34.1907 39.6907 38.5 34.375 38.5H20.625C15.3093 38.5 11 34.1907 11 28.875V22Z" fill="white"/>
<path d="M36.6653 43.5878C34.2559 41.4349 30.0779 37.8125 29.5625 37.8125L37.125 35.75V43.3825C37.125 43.6206 36.8429 43.7465 36.6653 43.5878Z" fill="white"/>
<path d="M24.75 33V24.75C24.75 24.3703 24.4422 24.0625 24.0625 24.0625H21.3125C20.9328 24.0625 20.625 23.7547 20.625 23.375V19.9375C20.625 19.5578 20.9328 19.25 21.3125 19.25H33.6875C34.0672 19.25 34.375 19.5578 34.375 19.9375V23.375C34.375 23.7547 34.0672 24.0625 33.6875 24.0625H30.9375C30.5578 24.0625 30.25 24.3703 30.25 24.75V33C30.25 33.3797 29.9422 33.6875 29.5625 33.6875H25.4375C25.0578 33.6875 24.75 33.3797 24.75 33Z" fill="#FC3234"/>
</svg>
