<svg width="55" height="55" viewBox="0 0 55 55" fill="none" xmlns="http://www.w3.org/2000/svg">
<g clip-path="url(#clip0_438_300)">
<path d="M27.5 55C42.6878 55 55 42.6878 55 27.5C55 12.3122 42.6878 0 27.5 0C12.3122 0 0 12.3122 0 27.5C0 42.6878 12.3122 55 27.5 55Z" fill="#353941"/>
<path d="M12.5835 26.9044L39.0981 16.6813C40.3287 16.2367 41.4035 16.9815 41.0048 18.8423L41.0071 18.84L36.4925 40.109C36.1579 41.6169 35.2619 41.9836 34.0083 41.2731L27.1333 36.2063L23.8173 39.4009C23.4506 39.7675 23.1412 40.0769 22.4308 40.0769L22.919 33.0804L35.6606 21.5694C36.2152 21.0813 35.5369 20.8063 34.8058 21.2921L19.0598 31.2059L12.2719 29.0884C10.7983 28.6209 10.7662 27.6148 12.5835 26.9044Z" fill="white"/>
</g>
<defs>
<clipPath id="clip0_438_300">
<rect width="55" height="55" fill="white"/>
</clipPath>
</defs>
</svg>
