<svg width="55" height="55" viewBox="0 0 55 55" fill="none" xmlns="http://www.w3.org/2000/svg">
<rect width="55" height="55" rx="27.5" fill="#353941"/>
<g clip-path="url(#clip0_438_303)">
<path d="M38.1491 31.0351C37.5934 30.3332 37.7523 30.021 38.1491 29.3937C38.1563 29.3865 42.7439 23.0472 43.2165 20.8973L43.2194 20.8959C43.4543 20.1124 43.2194 19.5366 42.0836 19.5366H38.3253C37.3685 19.5366 36.9273 20.0308 36.691 20.5836C36.691 20.5836 34.7775 25.1641 32.0704 28.1332C31.1967 28.9912 30.7928 29.2662 30.3159 29.2662C30.081 29.2662 29.7158 28.9912 29.7158 28.2077V20.8959C29.7158 19.9563 29.4479 19.5366 28.6559 19.5366H22.7462C22.1461 19.5366 21.7895 19.9749 21.7895 20.3831C21.7895 21.274 23.143 21.4788 23.2833 23.9853V29.4237C23.2833 30.6154 23.0671 30.8345 22.5872 30.8345C21.3096 30.8345 18.2087 26.2354 16.3711 20.9718C16.0001 19.9506 15.6378 19.5381 14.6738 19.5381H10.9141C9.84128 19.5381 9.625 20.0322 9.625 20.5851C9.625 21.5619 10.9026 26.4188 15.5661 32.8355C18.6742 37.2154 23.0513 39.5887 27.0331 39.5887C29.4264 39.5887 29.7186 39.0616 29.7186 38.155C29.7186 33.9698 29.5023 33.5745 30.7012 33.5745C31.2569 33.5745 32.2137 33.8495 34.448 35.9621C37.0018 38.4672 37.4215 39.5887 38.8509 39.5887H42.6092C43.6806 39.5887 44.2234 39.0616 43.9112 38.0218C43.1965 35.8347 38.3668 31.3358 38.1491 31.0351Z" fill="white"/>
</g>
<defs>
<clipPath id="clip0_438_303">
<rect width="34.375" height="34.375" fill="white" transform="translate(9.625 12.375)"/>
</clipPath>
</defs>
</svg>
