<svg width="714" height="410" viewBox="0 0 714 410" fill="none" xmlns="http://www.w3.org/2000/svg">
<path d="M0 397.711C25.1035 405.527 51.2162 409.561 77.5813 409.561H357H636.419C662.658 409.561 688.896 405.527 714 397.711H357H0Z" fill="url(#paint0_linear_237_744)"/>
<path d="M0 393.425V397.711H287.871C290.646 397.711 293.547 398.089 296.323 398.72C296.701 398.846 296.953 398.846 297.332 398.972V393.425H0Z" fill="url(#paint1_linear_237_744)"/>
<path d="M714 393.425V397.711H426.255C423.48 397.711 420.578 398.089 417.803 398.72C417.425 398.846 417.172 398.846 416.794 398.972V393.425H714Z" fill="url(#paint2_linear_237_744)"/>
<path d="M416.794 393.425V398.972C415.533 399.224 414.271 399.35 413.01 399.35H300.864C299.603 399.35 298.341 399.224 297.08 398.972V393.425H416.794Z" fill="url(#paint3_linear_237_744)"/>
<path d="M0 392.795V397.081H287.871C290.646 397.081 293.547 397.459 296.323 398.089C296.701 398.215 296.953 398.215 297.332 398.341V392.795H0Z" fill="url(#paint4_linear_237_744)"/>
<path d="M631.247 2.52124H82.8797C73.0401 2.52124 65.0928 10.4628 65.0928 20.2953V391.913H67.6157V17.7742C67.6157 17.0178 67.6157 16.2615 67.7419 15.5051C67.7419 15.253 67.868 15.0009 67.868 14.7488C67.868 14.4967 67.9942 14.2445 67.9942 13.9924C68.1203 13.7403 68.1203 13.4882 68.2465 13.2361C68.8772 11.2192 69.8864 9.32832 71.274 7.81563C71.4001 7.68957 71.6525 7.43746 71.7786 7.31141C71.9048 7.18535 71.9048 7.18533 72.0309 7.05928C72.7878 6.30293 73.6709 5.54662 74.5539 5.04239C74.8062 4.79027 75.1846 4.66419 75.5631 4.53813C75.9415 4.41207 76.1938 4.15996 76.5722 4.03391C76.8245 3.90785 77.0768 3.78181 77.203 3.78181C78.9691 3.15153 80.8613 2.77333 82.7536 2.77333L631.247 2.52124C633.77 2.52124 636.293 3.27758 638.437 4.4121C638.816 4.53816 639.068 4.79027 639.446 4.91632C639.825 5.16844 640.203 5.42053 640.582 5.7987C640.834 5.92476 640.96 6.05085 641.086 6.30296C641.339 6.55508 641.591 6.80716 641.843 7.05928C641.969 7.18533 641.97 7.18535 642.096 7.31141C642.222 7.43746 642.474 7.68957 642.6 7.81563C644.871 10.4628 646.258 13.9924 646.258 17.7742V391.913H648.781V19.1608C648.403 9.9586 640.708 2.52124 631.247 2.52124Z" fill="url(#paint5_linear_237_744)"/>
<path d="M65.0928 17.7743C65.0928 7.94183 73.0401 0.000244141 82.8797 0.000244141H631.247C641.086 0.000244141 649.034 7.94183 649.034 17.7743V19.161C648.403 9.8327 640.708 2.52139 631.247 2.52139H82.8797C73.0401 2.52139 65.0928 10.463 65.0928 20.2955V17.7743Z" fill="url(#paint6_linear_237_744)"/>
<path d="M646.511 379.433H67.7417V391.913H646.511V379.433Z" fill="#212121"/>
<path d="M646.384 17.7742V379.433H67.7417V17.7742C67.7417 9.45437 74.5537 2.52124 83.0056 2.52124H631.373C639.572 2.52124 646.384 9.32831 646.384 17.7742Z" fill="black"/>
<path d="M714 392.795V397.081H426.256C423.48 397.081 420.579 397.459 417.804 398.089C417.425 398.215 417.173 398.215 416.794 398.341V392.795H714Z" fill="url(#paint7_linear_237_744)"/>
<path d="M416.794 392.795V398.341C415.533 398.593 414.271 398.719 413.01 398.719H300.864C299.603 398.719 298.341 398.593 297.08 398.341V392.795H416.794Z" fill="url(#paint8_linear_237_744)"/>
<path d="M649.034 391.913V392.795H646.385H67.7419H65.0928V391.913H649.034Z" fill="#131313"/>
<path d="M634.4 24.7075H79.5996V372.5H634.4V24.7075Z" fill="#2E3239"/>
<defs>
<linearGradient id="paint0_linear_237_744" x1="357.061" y1="409.519" x2="357.061" y2="397.71" gradientUnits="userSpaceOnUse">
<stop stop-color="#575554"/>
<stop offset="0.464" stop-color="#575554"/>
<stop offset="1" stop-color="#131313"/>
</linearGradient>
<linearGradient id="paint1_linear_237_744" x1="297.257" y1="396.225" x2="0.0268579" y2="396.225" gradientUnits="userSpaceOnUse">
<stop stop-color="#767676"/>
<stop offset="0.000828953" stop-color="#6E6E6E"/>
<stop offset="0.00387589" stop-color="#585858"/>
<stop offset="0.00675288" stop-color="#4A4A4A"/>
<stop offset="0.00926474" stop-color="#454545"/>
<stop offset="0.0129414" stop-color="#484848"/>
<stop offset="0.0158901" stop-color="#525252"/>
<stop offset="0.0177594" stop-color="#5D5D5D"/>
<stop offset="0.0253402" stop-color="#7C7C7C"/>
<stop offset="0.4016" stop-color="#838383"/>
<stop offset="0.4064" stop-color="#838383"/>
<stop offset="0.9354" stop-color="#6A6A6A"/>
<stop offset="0.9589" stop-color="#484848"/>
<stop offset="0.9731" stop-color="#383838"/>
<stop offset="0.9791" stop-color="#3D3D3D"/>
<stop offset="0.9862" stop-color="#4B4B4B"/>
<stop offset="0.9939" stop-color="#636363"/>
<stop offset="1" stop-color="#7C7C7C"/>
</linearGradient>
<linearGradient id="paint2_linear_237_744" x1="416.828" y1="396.225" x2="714.058" y2="396.225" gradientUnits="userSpaceOnUse">
<stop stop-color="#505050"/>
<stop offset="0.000828953" stop-color="#484848"/>
<stop offset="0.00387589" stop-color="#323232"/>
<stop offset="0.00675288" stop-color="#242424"/>
<stop offset="0.00926474" stop-color="#1F1F1F"/>
<stop offset="0.0129414" stop-color="#222222"/>
<stop offset="0.0158901" stop-color="#2C2C2C"/>
<stop offset="0.0177594" stop-color="#373737"/>
<stop offset="0.0253402" stop-color="#565656"/>
<stop offset="0.4016" stop-color="#5E5E5E"/>
<stop offset="0.4064" stop-color="#5E5E5E"/>
<stop offset="0.9354" stop-color="#444444"/>
<stop offset="0.9589" stop-color="#222222"/>
<stop offset="0.9731" stop-color="#121212"/>
<stop offset="0.9791" stop-color="#171717"/>
<stop offset="0.9862" stop-color="#252525"/>
<stop offset="0.9939" stop-color="#3D3D3D"/>
<stop offset="1" stop-color="#565656"/>
</linearGradient>
<linearGradient id="paint3_linear_237_744" x1="297.257" y1="396.397" x2="416.829" y2="396.397" gradientUnits="userSpaceOnUse">
<stop stop-color="#565656"/>
<stop offset="0.0612241" stop-color="#444444"/>
<stop offset="0.5076" stop-color="#565656"/>
<stop offset="0.9402" stop-color="#444444"/>
<stop offset="1" stop-color="#565656"/>
</linearGradient>
<linearGradient id="paint4_linear_237_744" x1="297.257" y1="395.609" x2="0.0268579" y2="395.609" gradientUnits="userSpaceOnUse">
<stop stop-color="#A7A7A7"/>
<stop offset="0.00138006" stop-color="#8E8E8E"/>
<stop offset="0.00352817" stop-color="#6F6F6F"/>
<stop offset="0.00560494" stop-color="#585858"/>
<stop offset="0.00755907" stop-color="#4A4A4A"/>
<stop offset="0.00926474" stop-color="#454545"/>
<stop offset="0.0120225" stop-color="#484848"/>
<stop offset="0.014237" stop-color="#525252"/>
<stop offset="0.0162558" stop-color="#636363"/>
<stop offset="0.0177594" stop-color="#757575"/>
<stop offset="0.0253402" stop-color="#6B6968"/>
<stop offset="0.4016" stop-color="#6B6968"/>
<stop offset="0.4064" stop-color="#6B6968"/>
<stop offset="0.9354" stop-color="#8D8D8D"/>
<stop offset="0.9494" stop-color="#636363"/>
<stop offset="0.965" stop-color="#3B3B3B"/>
<stop offset="0.9731" stop-color="#2B2B2B"/>
<stop offset="0.9793" stop-color="#303030"/>
<stop offset="0.9867" stop-color="#3E3E3E"/>
<stop offset="0.9946" stop-color="#565554"/>
<stop offset="1" stop-color="#6B6968"/>
</linearGradient>
<linearGradient id="paint5_linear_237_744" x1="357.079" y1="391.903" x2="357.079" y2="2.53623" gradientUnits="userSpaceOnUse">
<stop stop-color="#504E4E"/>
<stop offset="0.0945726" stop-color="#585656"/>
<stop offset="0.2407" stop-color="#6E6B6B"/>
<stop offset="0.4192" stop-color="#918E8E"/>
<stop offset="0.447" stop-color="#979494"/>
<stop offset="1" stop-color="#7B7878"/>
</linearGradient>
<linearGradient id="paint6_linear_237_744" x1="357.061" y1="20.3156" x2="357.061" y2="-0.00605929" gradientUnits="userSpaceOnUse">
<stop stop-color="#1A1A1A"/>
<stop offset="0.2805" stop-color="#1D1D1D"/>
<stop offset="0.4483" stop-color="#252525"/>
<stop offset="0.5865" stop-color="#333333"/>
<stop offset="0.7086" stop-color="#474747"/>
<stop offset="0.8201" stop-color="#626262"/>
<stop offset="0.9223" stop-color="#818181"/>
<stop offset="1" stop-color="#9F9F9F"/>
</linearGradient>
<linearGradient id="paint7_linear_237_744" x1="416.829" y1="395.609" x2="714.058" y2="395.609" gradientUnits="userSpaceOnUse">
<stop stop-color="#818181"/>
<stop offset="0.00133465" stop-color="#696969"/>
<stop offset="0.00349543" stop-color="#4A4A4A"/>
<stop offset="0.00558396" stop-color="#333333"/>
<stop offset="0.00754928" stop-color="#252525"/>
<stop offset="0.00926474" stop-color="#202020"/>
<stop offset="0.0120467" stop-color="#232323"/>
<stop offset="0.0142805" stop-color="#2D2D2D"/>
<stop offset="0.0163173" stop-color="#3E3E3E"/>
<stop offset="0.0177594" stop-color="#4F4F4F"/>
<stop offset="0.0253402" stop-color="#6B6968"/>
<stop offset="0.4016" stop-color="#6B6968"/>
<stop offset="0.4064" stop-color="#6B6968"/>
<stop offset="0.9354" stop-color="#686868"/>
<stop offset="0.9464" stop-color="#4B4B4B"/>
<stop offset="0.964" stop-color="#232323"/>
<stop offset="0.9731" stop-color="#131313"/>
<stop offset="0.9783" stop-color="#181818"/>
<stop offset="0.9844" stop-color="#262626"/>
<stop offset="0.991" stop-color="#3E3D3D"/>
<stop offset="0.9979" stop-color="#605E5D"/>
<stop offset="1" stop-color="#6B6968"/>
</linearGradient>
<linearGradient id="paint8_linear_237_744" x1="297.257" y1="395.781" x2="416.829" y2="395.781" gradientUnits="userSpaceOnUse">
<stop stop-color="#838180"/>
<stop offset="0.0612241" stop-color="#6B6968"/>
<stop offset="0.5076" stop-color="#838180"/>
<stop offset="0.9402" stop-color="#6B6968"/>
<stop offset="1" stop-color="#838180"/>
</linearGradient>
</defs>
</svg>
