<svg width="114" height="230" viewBox="0 0 114 230" fill="none" xmlns="http://www.w3.org/2000/svg">
<path d="M98.4214 0H15.4743C6.9407 0 0 6.94212 0 15.5913V214.523C0 223.058 6.9407 230 15.4743 230H98.4214C106.955 230 113.896 223.058 113.896 214.523V15.5913C113.896 6.94212 106.955 0 98.4214 0ZM113.554 213.043C113.554 214.636 113.327 216.23 112.872 217.709C112.872 217.823 112.758 217.937 112.758 218.05C112.758 218.164 112.644 218.278 112.644 218.392C112.644 218.506 112.53 218.506 112.53 218.619C112.417 218.847 112.303 219.075 112.189 219.302C112.189 219.416 112.075 219.53 112.075 219.644C111.961 219.758 111.961 219.985 111.848 220.099C111.848 220.213 111.734 220.327 111.734 220.44C111.734 220.554 111.62 220.668 111.506 220.782C111.393 221.009 111.165 221.351 110.937 221.578C110.824 221.692 110.824 221.692 110.71 221.806C110.596 221.92 110.596 222.034 110.482 222.034C110.369 222.147 110.369 222.261 110.255 222.261C110.141 222.375 110.141 222.489 110.027 222.489C109.913 222.603 109.913 222.717 109.8 222.717C109.686 222.944 109.458 223.058 109.344 223.286C109.117 223.513 108.889 223.741 108.548 224.082C108.434 224.196 108.434 224.196 108.32 224.31C108.093 224.424 107.979 224.651 107.752 224.765C107.638 224.879 107.638 224.879 107.524 224.993C107.296 225.22 106.955 225.448 106.728 225.562C106.614 225.675 106.5 225.675 106.386 225.789C106.159 225.903 106.045 226.017 105.817 226.131C105.703 226.244 105.59 226.244 105.476 226.244C105.135 226.472 104.793 226.586 104.452 226.7C104.338 226.7 104.224 226.813 104.224 226.813C104.111 226.813 103.997 226.927 103.883 226.927C103.769 226.927 103.655 227.041 103.542 227.041C103.314 227.155 103.086 227.269 102.745 227.269C102.631 227.269 102.518 227.269 102.518 227.382C102.176 227.496 101.835 227.61 101.494 227.61C101.38 227.61 101.266 227.61 101.152 227.724C101.038 227.724 100.925 227.724 100.811 227.838C100.583 227.838 100.356 227.952 100.128 227.952H100.014H99.9006C100.128 227.952 100.356 227.952 100.583 227.838C100.697 227.838 100.811 227.838 100.925 227.838C101.038 227.838 101.152 227.838 101.266 227.724C101.607 227.61 101.835 227.61 102.176 227.496C102.29 227.496 102.404 227.382 102.518 227.382C102.745 227.269 102.859 227.269 103.086 227.155C103.428 227.041 103.655 226.927 103.997 226.813C104.111 226.813 104.224 226.7 104.224 226.7C104.338 226.7 104.452 226.586 104.452 226.586C104.679 226.472 104.793 226.358 105.021 226.244C105.248 226.131 105.362 226.017 105.59 225.903C105.703 225.789 105.931 225.675 106.045 225.562C106.272 225.334 106.5 225.22 106.841 224.993C106.955 224.879 106.955 224.879 107.069 224.765C107.296 224.537 107.524 224.424 107.752 224.196C108.32 223.741 108.776 223.172 109.231 222.603C109.344 222.489 109.344 222.489 109.458 222.375C110.141 221.578 110.596 220.554 111.051 219.644C111.165 219.53 111.165 219.302 111.279 219.189C111.62 218.392 111.848 217.595 111.961 216.799C111.961 216.685 112.075 216.457 112.075 216.343C112.189 215.661 112.189 214.978 112.189 214.295V15.5913C112.189 8.53539 106.841 2.73131 100.014 2.04848C99.9006 2.04848 99.7868 2.04848 99.673 2.04848C99.5592 2.04848 99.4454 2.04848 99.3317 2.04848C99.1041 2.04848 98.8765 2.04848 98.649 2.04848H15.4743C15.2468 2.04848 15.0192 2.04848 14.7917 2.04848C7.62339 2.38989 1.82051 8.42156 1.82051 15.7051V214.636C1.82051 221.692 7.16826 227.383 13.8814 228.179C13.7676 228.179 13.6538 228.179 13.6538 228.179C13.4263 228.179 13.1987 228.065 12.9711 228.065C11.6058 227.838 10.2404 227.382 8.98878 226.813C8.87499 226.813 8.76121 226.7 8.76121 226.7C8.53365 226.586 8.30608 226.472 8.07852 226.358C7.96474 226.244 7.85096 226.244 7.73717 226.131C7.28205 225.789 6.71314 225.448 6.25801 225.106C6.14423 224.993 6.14423 224.993 6.03045 224.879C5.80288 224.651 5.57532 224.537 5.34775 224.31C5.23397 224.196 5.23397 224.196 5.12019 224.082C5.00641 223.968 5.00641 223.968 4.89263 223.855C4.77884 223.741 4.77884 223.741 4.66506 223.627L4.55128 223.513C4.4375 223.399 4.4375 223.399 4.32372 223.286C3.98237 222.83 3.52724 222.375 3.29968 221.92C3.1859 221.806 3.1859 221.806 3.07211 221.692C2.84455 221.465 2.73077 221.123 2.5032 220.896C2.38942 220.782 2.38942 220.668 2.27564 220.554C1.82051 219.758 1.47917 219.075 1.2516 218.164C1.2516 218.051 1.13782 217.937 1.13782 217.823C0.910256 217.254 0.796474 216.685 0.682692 216.116C0.682692 216.002 0.682692 215.888 0.56891 215.774C0.455128 214.978 0.341346 214.067 0.341346 213.271V15.5913C0.341346 15.4775 0.341346 15.2499 0.341346 15.1361C0.341346 15.0223 0.341346 14.9085 0.341346 14.7947C0.341346 14.567 0.341346 14.3394 0.341346 14.1118C0.341346 13.998 0.341346 13.8842 0.341346 13.7704C0.341346 13.6566 0.341346 13.6566 0.341346 13.5428C0.341346 13.429 0.341346 13.429 0.341346 13.3152C0.341346 13.2014 0.341346 13.0876 0.455128 12.9738C0.455128 12.7462 0.56891 12.5185 0.56891 12.2909C0.56891 12.1771 0.56891 12.0633 0.682692 11.9495C0.796474 11.6081 0.796474 11.3805 0.910256 11.0391C0.910256 10.9253 1.02404 10.8115 1.02404 10.6977C1.02404 10.5839 1.13782 10.4701 1.13782 10.3563C1.13782 10.2425 1.2516 10.1286 1.2516 10.0148C1.2516 9.90103 1.36538 9.90105 1.36538 9.78724C1.36538 9.67344 1.47917 9.55962 1.47917 9.55962C1.47917 9.44581 1.59295 9.44583 1.59295 9.33203C1.59295 9.21822 1.70673 9.1044 1.70673 8.99059C1.82051 8.76298 1.93429 8.64918 1.93429 8.42157C1.93429 8.30776 2.04808 8.19398 2.04808 8.19398C2.04808 8.08017 2.16186 7.96635 2.27564 7.85254C2.73077 7.16971 3.1859 6.4869 3.64102 5.80406C3.75481 5.69026 3.75481 5.57644 3.86859 5.57644C3.98237 5.46264 4.09615 5.34884 4.09615 5.23504C4.20993 5.12123 4.4375 4.89363 4.55128 4.77983C4.66506 4.66602 4.89263 4.43838 5.00641 4.32458C5.23397 4.21077 5.34775 3.98317 5.57532 3.86936C5.6891 3.75556 5.80288 3.75558 5.80288 3.64178C6.03044 3.52797 6.14423 3.30033 6.37179 3.18653C6.59935 3.07272 6.71314 2.95893 6.9407 2.84513C7.16826 2.73132 7.28205 2.61753 7.50961 2.50373C7.62339 2.38992 7.73717 2.38991 7.85096 2.2761C7.96474 2.1623 8.07852 2.16229 8.1923 2.16229C8.30608 2.16229 8.41987 2.04848 8.53365 2.04848C8.64743 2.04848 8.76121 1.9347 8.87499 1.9347C9.10256 1.82089 9.33012 1.70708 9.55769 1.70708C9.67147 1.70708 9.78525 1.59326 9.89903 1.59326C10.0128 1.59326 10.1266 1.47945 10.2404 1.47945C10.3542 1.47945 10.4679 1.36567 10.5817 1.36567C10.6955 1.36567 10.8093 1.25186 10.9231 1.25186C11.0369 1.25186 11.1506 1.13805 11.2644 1.13805C11.3782 1.13805 11.492 1.02424 11.6058 1.02424C11.7195 1.02424 11.8333 0.910427 11.9471 0.910427C12.1747 0.910427 12.4022 0.796649 12.6298 0.796649C12.7436 0.796649 12.8574 0.796642 12.9711 0.682837C13.1987 0.682837 13.5401 0.569025 13.7676 0.569025C13.9952 0.569025 14.2227 0.569025 14.4503 0.569025C14.5641 0.569025 14.6779 0.569025 14.7917 0.569025C14.9054 0.569025 15.0192 0.569025 15.133 0.569025H98.0801C98.1938 0.569025 98.3076 0.569025 98.4214 0.569025C98.5352 0.569025 98.649 0.569025 98.7628 0.569025C98.9903 0.569025 99.2179 0.569025 99.4454 0.569025C99.5592 0.569025 99.673 0.569025 99.7868 0.569025C99.9006 0.569025 100.014 0.569025 100.128 0.569025C100.242 0.569025 100.356 0.569032 100.469 0.682837C100.583 0.796642 100.697 0.682844 100.811 0.796649C100.925 0.796649 101.038 0.796622 101.152 0.910427C101.266 0.910427 101.38 0.910433 101.494 1.02424C101.494 1.02424 101.494 1.02424 101.607 1.02424C101.721 1.02424 101.835 1.02425 101.949 1.13805C102.062 1.13805 102.176 1.25186 102.404 1.25186C102.518 1.25186 102.631 1.36567 102.631 1.36567C102.859 1.47948 103.086 1.47946 103.2 1.59326C103.314 1.59326 103.428 1.70708 103.655 1.70708C103.769 1.70708 103.883 1.82089 103.997 1.82089C104.111 1.82089 104.224 1.9347 104.338 1.9347C104.452 1.9347 104.566 2.04848 104.679 2.04848C105.476 2.38989 106.159 2.84512 106.841 3.30034C106.955 3.41414 106.955 3.41416 107.069 3.52796C107.41 3.75557 107.638 3.98319 107.979 4.2108C108.093 4.32461 108.207 4.4384 108.32 4.5522C108.776 5.00742 109.231 5.46263 109.686 6.03165C109.8 6.14546 109.8 6.25928 109.913 6.25928C110.027 6.48689 110.255 6.60069 110.369 6.8283C110.482 6.94211 110.482 7.0559 110.596 7.1697C110.71 7.28351 110.824 7.51112 110.937 7.73873C110.937 7.85253 111.051 7.96635 111.051 7.96635C111.165 8.08016 111.279 8.30777 111.393 8.53538C111.393 8.64918 111.506 8.6492 111.506 8.763C111.62 9.10442 111.848 9.33201 111.961 9.67343C111.961 9.78724 112.075 9.78725 112.075 9.90105C112.189 10.2425 112.303 10.4701 112.417 10.8115C112.417 10.9253 112.53 11.0391 112.53 11.1529C112.758 11.8357 112.872 12.5186 112.986 13.2014C112.986 13.3152 112.986 13.3152 112.986 13.429C112.986 13.5428 112.986 13.6566 112.986 13.7704C112.986 13.8842 112.986 13.998 112.986 14.1118C112.986 14.2256 112.986 14.3395 112.986 14.4533C112.986 14.6809 112.986 14.9084 112.986 15.1361C112.986 15.2499 112.986 15.4775 112.986 15.5913V213.043H113.554Z" fill="#C7C7C7"/>
<path d="M14.1089 228.065C13.9951 228.065 13.8814 228.065 13.7676 228.065C13.54 228.065 13.3124 227.952 13.0849 227.952C11.7195 227.724 10.3541 227.269 9.10251 226.7C8.98873 226.7 8.87495 226.586 8.87495 226.586C8.64738 226.472 8.41982 226.358 8.19225 226.245C8.07847 226.131 7.96469 226.131 7.85091 226.017C7.39578 225.675 6.82687 225.334 6.37174 224.993C6.25796 224.879 6.25796 224.879 6.14418 224.765C5.91661 224.537 5.68905 224.424 5.46149 224.196C5.3477 224.082 5.3477 224.082 5.23392 223.968C5.12014 223.855 5.12014 223.855 5.00636 223.741C4.89258 223.627 4.89258 223.627 4.77879 223.513L4.66501 223.399C4.55123 223.286 4.55123 223.286 4.43745 223.172C4.0961 222.717 3.64097 222.261 3.41341 221.806C3.29963 221.692 3.29963 221.692 3.18585 221.579C2.95828 221.351 2.8445 221.01 2.61694 220.782C2.50315 220.668 2.50315 220.554 2.38937 220.44C1.93424 219.644 1.5929 218.961 1.36533 218.051C1.36533 217.937 1.25155 217.823 1.25155 217.709C1.02399 217.14 0.910206 216.571 0.796424 216.002C0.796424 215.888 0.796424 215.774 0.682642 215.661C0.56886 214.864 0.455078 213.954 0.455078 213.157V16.9571C0.455078 8.8769 6.82687 2.27623 14.7916 1.93481C7.62334 2.27623 1.82046 8.3079 1.82046 15.5914V214.523C1.82046 221.579 7.16822 227.383 14.1089 228.065Z" fill="url(#paint0_linear_237_760)"/>
<path d="M113.554 16.9566V213.043C113.554 214.636 113.327 216.229 112.872 217.709C112.872 217.823 112.758 217.936 112.758 218.05C112.758 218.164 112.644 218.278 112.644 218.392C112.644 218.505 112.53 218.505 112.53 218.619C112.416 218.847 112.303 219.074 112.189 219.302C112.189 219.416 112.075 219.53 112.075 219.643C111.961 219.757 111.961 219.985 111.848 220.099C111.848 220.212 111.734 220.326 111.734 220.44C111.734 220.554 111.62 220.668 111.506 220.781C111.392 221.009 111.165 221.35 110.937 221.578C110.824 221.692 110.824 221.692 110.71 221.806C110.596 221.92 110.596 222.033 110.482 222.033C110.368 222.147 110.368 222.261 110.255 222.261C110.141 222.375 110.141 222.489 110.027 222.489C109.913 222.602 109.913 222.716 109.799 222.716C109.686 222.944 109.458 223.058 109.344 223.285C109.117 223.513 108.889 223.74 108.548 224.082C108.434 224.196 108.434 224.196 108.32 224.309C108.093 224.423 107.979 224.651 107.751 224.765C107.638 224.878 107.638 224.878 107.524 224.992C107.296 225.22 106.955 225.447 106.727 225.561C106.614 225.675 106.5 225.675 106.386 225.789C106.158 225.903 106.045 226.016 105.817 226.13C105.703 226.244 105.59 226.244 105.476 226.244C105.134 226.472 104.793 226.586 104.452 226.699C104.338 226.699 104.224 226.813 104.224 226.813C104.11 226.813 103.997 226.927 103.883 226.927C103.769 226.927 103.655 227.041 103.541 227.041C103.314 227.155 103.086 227.268 102.745 227.268C102.631 227.268 102.517 227.268 102.517 227.382C102.176 227.496 101.835 227.61 101.493 227.61C101.38 227.61 101.266 227.61 101.152 227.724C101.038 227.724 100.924 227.724 100.811 227.837C100.583 227.837 100.356 227.951 100.128 227.951C100.014 227.951 99.9004 227.951 99.7867 227.951C106.614 227.268 111.961 221.464 111.961 214.408V15.5909C111.961 8.42121 106.386 2.50332 99.4453 2.0481C107.296 2.50332 113.554 8.99021 113.554 16.9566Z" fill="url(#paint1_linear_237_760)"/>
<path d="M113.554 213.043V214.522C113.554 222.83 106.841 229.545 98.5351 229.545H15.4743C7.16822 229.545 0.455078 222.83 0.455078 214.522V213.043C0.455078 213.953 0.56886 214.75 0.682642 215.547C0.682642 215.66 0.682642 215.774 0.796424 215.888C0.910206 216.457 1.02399 217.026 1.25155 217.595C1.25155 217.709 1.36533 217.823 1.36533 217.937C1.70668 218.733 2.04803 219.53 2.38937 220.326C2.38937 220.44 2.50315 220.554 2.61694 220.668C2.73072 220.896 2.95828 221.237 3.18585 221.465C3.29963 221.578 3.29963 221.578 3.41341 221.692C3.75476 222.147 4.0961 222.603 4.43745 223.058C4.55123 223.172 4.55123 223.172 4.66501 223.285C4.66501 223.399 4.77879 223.399 4.77879 223.399C4.89258 223.513 4.89258 223.513 5.00636 223.627C5.12014 223.741 5.12014 223.741 5.23392 223.854C5.3477 223.968 5.3477 223.968 5.46149 224.082C5.68905 224.31 5.91661 224.537 6.14418 224.651C6.25796 224.765 6.25796 224.765 6.37174 224.879C6.82687 225.22 7.282 225.562 7.85091 225.903C7.96469 226.017 8.07847 226.017 8.19225 226.131C8.41982 226.244 8.64738 226.358 8.87495 226.472C8.98873 226.472 9.10251 226.586 9.10251 226.586C10.3541 227.155 11.7195 227.61 13.0849 227.838C13.3124 227.838 13.54 227.951 13.7676 227.951C13.9951 227.951 14.2227 227.951 14.4503 228.065C14.564 228.065 14.6778 228.065 14.7916 228.065C15.0192 228.065 15.2467 228.065 15.4743 228.065H98.4214C98.6489 228.065 98.8765 228.065 99.1041 228.065C99.2178 228.065 99.3316 228.065 99.4454 228.065C99.673 228.065 99.7868 228.065 100.014 228.065H100.128C100.356 228.065 100.583 227.951 100.811 227.951C100.925 227.951 101.038 227.951 101.152 227.838C101.266 227.838 101.38 227.838 101.493 227.724C101.835 227.61 102.176 227.61 102.518 227.496C102.631 227.496 102.745 227.496 102.745 227.382C102.973 227.269 103.2 227.269 103.542 227.155C103.655 227.155 103.769 227.041 103.883 227.041C103.997 227.041 104.11 226.927 104.224 226.927C104.338 226.927 104.452 226.813 104.452 226.813C104.793 226.7 105.135 226.472 105.476 226.358C105.59 226.358 105.703 226.244 105.817 226.244C106.045 226.131 106.272 226.017 106.386 225.903C106.5 225.789 106.614 225.789 106.727 225.675C107.069 225.448 107.296 225.334 107.524 225.106C107.638 224.992 107.638 224.992 107.751 224.879C107.979 224.765 108.093 224.537 108.32 224.423C108.434 224.31 108.434 224.31 108.548 224.196C108.776 223.968 109.117 223.741 109.344 223.399C109.458 223.285 109.686 223.058 109.8 222.83C109.913 222.716 109.913 222.603 110.027 222.603C110.141 222.489 110.141 222.375 110.255 222.375C110.368 222.261 110.368 222.147 110.482 222.147C110.596 222.034 110.596 221.92 110.71 221.92C110.824 221.806 110.824 221.806 110.937 221.692C111.165 221.465 111.279 221.123 111.506 220.895C111.62 220.782 111.62 220.668 111.734 220.554C111.734 220.44 111.848 220.326 111.848 220.213C111.961 220.099 111.961 219.871 112.075 219.757C112.075 219.644 112.189 219.53 112.189 219.416C112.303 219.188 112.417 218.961 112.53 218.733C112.53 218.619 112.644 218.619 112.644 218.506C112.644 218.392 112.758 218.278 112.758 218.164C112.758 218.05 112.872 217.937 112.872 217.823C113.213 216.23 113.554 214.75 113.554 213.043Z" fill="url(#paint2_linear_237_760)"/>
<path d="M113.554 15.5914V17.0708C113.554 9.21828 107.524 2.84518 99.9005 2.04854C99.7868 2.04854 99.673 2.04854 99.5592 2.04854C99.4454 2.04854 99.3316 2.04854 99.2178 2.04854C98.9903 2.04854 98.7627 2.04854 98.5351 2.04854H15.4743C15.2467 2.04854 15.0192 2.04854 14.7916 2.04854C6.82687 2.38996 0.455078 8.99067 0.455078 17.0708V15.5914C0.455078 15.4776 0.455078 15.2499 0.455078 15.1361C0.455078 15.0223 0.455078 14.9085 0.455078 14.7947C0.455078 14.5671 0.455078 14.3395 0.455078 14.1119C0.455078 13.9981 0.455078 13.8843 0.455078 13.7705C0.455078 13.6567 0.455078 13.6567 0.455078 13.5429C0.455078 13.4291 0.455078 13.4291 0.455078 13.3153C0.455078 13.2015 0.455078 13.0876 0.56886 12.9738C0.56886 12.7462 0.682642 12.5186 0.682642 12.291C0.682642 12.1772 0.682642 12.0634 0.796424 11.9496C0.910206 11.6082 0.910206 11.3806 1.02399 11.0392C1.02399 10.9254 1.13777 10.8115 1.13777 10.6977C1.13777 10.5839 1.25155 10.4701 1.25155 10.3563C1.25155 10.2425 1.36533 10.1287 1.36533 10.0149C1.36533 9.90109 1.47912 9.90111 1.47912 9.78731C1.47912 9.6735 1.5929 9.55968 1.5929 9.55968C1.5929 9.44588 1.70668 9.4459 1.70668 9.33209C1.70668 9.21829 1.82046 9.10446 1.82046 8.99066C1.93424 8.76305 2.04803 8.64924 2.04803 8.42163C2.04803 8.30783 2.16181 8.19404 2.16181 8.19404C2.16181 8.08024 2.27559 7.96641 2.38937 7.85261C2.8445 7.16978 3.29963 6.48696 3.75476 5.80413C3.86854 5.69033 3.86854 5.57651 3.98232 5.57651C4.0961 5.4627 4.20988 5.34891 4.20988 5.23511C4.32367 5.1213 4.55123 4.8937 4.66501 4.77989C4.77879 4.66609 5.00636 4.43845 5.12014 4.32464C5.3477 4.21084 5.46149 3.98324 5.68905 3.86943C5.80283 3.75563 5.91661 3.75565 5.91661 3.64184C6.14418 3.52804 6.25796 3.3004 6.48552 3.18659C6.71309 3.07279 6.82687 2.959 7.05443 2.84519C7.282 2.73139 7.39578 2.6176 7.62334 2.50379C7.73712 2.38999 7.85091 2.38997 7.96469 2.27617C8.07847 2.16236 8.19225 2.16236 8.30604 2.16236C8.41982 2.16236 8.5336 2.04854 8.64738 2.04854C8.76116 2.04854 8.87495 1.93477 8.98873 1.93477C9.21629 1.82096 9.44386 1.70714 9.67142 1.70714C9.7852 1.70714 9.89898 1.59333 10.0128 1.59333C10.1265 1.59333 10.2403 1.47952 10.3541 1.47952C10.4679 1.47952 10.5817 1.36574 10.6955 1.36574C10.8092 1.36574 10.923 1.25193 11.0368 1.25193C11.1506 1.25193 11.2644 1.13812 11.3781 1.13812C11.4919 1.13812 11.6057 1.02431 11.7195 1.02431C11.8333 1.02431 11.9471 0.910493 12.0608 0.910493C12.2884 0.910493 12.516 0.796716 12.7435 0.796716C12.8573 0.796716 12.9711 0.796709 13.0849 0.682904C13.3124 0.682904 13.6538 0.569092 13.8814 0.569092C14.1089 0.569092 14.3365 0.569092 14.564 0.569092C14.6778 0.569092 14.7916 0.569092 14.9054 0.569092C15.0192 0.569092 15.133 0.569092 15.2467 0.569092H98.1938C98.3076 0.569092 98.4214 0.569092 98.5351 0.569092C98.6489 0.569092 98.7627 0.569092 98.8765 0.569092C99.1041 0.569092 99.3316 0.569092 99.5592 0.569092C99.673 0.569092 99.7868 0.569092 99.9005 0.569092C100.014 0.569092 100.128 0.569092 100.242 0.569092C100.356 0.569092 100.469 0.569099 100.583 0.682904C100.697 0.796709 100.811 0.682911 100.925 0.796716C101.038 0.796716 101.152 0.796688 101.266 0.910493C101.38 0.910493 101.493 0.9105 101.607 1.02431C101.607 1.02431 101.607 1.02431 101.721 1.02431C101.835 1.02431 101.949 1.02431 102.062 1.13812C102.176 1.13812 102.29 1.25193 102.518 1.25193C102.631 1.25193 102.745 1.36574 102.745 1.36574C102.973 1.47955 103.2 1.47953 103.314 1.59333C103.428 1.59333 103.542 1.70714 103.769 1.70714C103.883 1.70714 103.997 1.82095 104.11 1.82095C104.224 1.82095 104.338 1.93477 104.452 1.93477C104.566 1.93477 104.679 2.04854 104.793 2.04854C105.59 2.38996 106.272 2.84519 106.955 3.30041C107.069 3.41421 107.069 3.41422 107.183 3.52803C107.524 3.75564 107.751 3.98326 108.093 4.21087C108.207 4.32467 108.32 4.43846 108.434 4.55227C108.889 5.00749 109.344 5.46269 109.8 6.03172C109.913 6.14552 109.913 6.25934 110.027 6.25934C110.141 6.48695 110.368 6.60076 110.482 6.82837C110.596 6.94217 110.596 7.05597 110.71 7.16977C110.824 7.28358 110.937 7.51119 111.051 7.7388C111.051 7.8526 111.165 7.96642 111.165 7.96642C111.279 8.08022 111.393 8.30783 111.506 8.53544C111.506 8.64925 111.62 8.64926 111.62 8.76307C111.734 9.10448 111.961 9.33208 112.075 9.6735C112.075 9.7873 112.189 9.78731 112.189 9.90112C112.303 10.2425 112.417 10.4701 112.53 10.8115C112.53 10.9254 112.644 11.0391 112.644 11.1529C112.872 11.8358 112.985 12.5186 113.099 13.2015C113.099 13.3153 113.099 13.3152 113.099 13.429C113.099 13.5429 113.099 13.6567 113.099 13.7705C113.099 13.8843 113.099 13.9981 113.099 14.1119C113.099 14.2257 113.099 14.3395 113.099 14.4533C113.099 14.6809 113.099 14.9085 113.099 15.1361C113.554 15.2499 113.554 15.3638 113.554 15.5914Z" fill="url(#paint3_linear_237_760)"/>
<path d="M99.1039 1.93481C98.8764 1.93481 98.6488 1.93481 98.4212 1.93481H15.4742C15.2466 1.93481 15.019 1.93481 14.7915 1.93481C7.62319 2.27623 1.82031 8.3079 1.82031 15.5914V214.523C1.82031 221.692 7.39563 227.61 14.3363 228.065C14.4501 228.065 14.5639 228.065 14.6777 228.065C14.9052 228.065 15.1328 228.065 15.3604 228.065H98.3074C98.535 228.065 98.7626 228.065 98.9901 228.065C99.1039 228.065 99.2177 228.065 99.3315 228.065C106.386 227.496 111.848 221.579 111.848 214.523V15.5914C112.075 8.3079 106.386 2.27623 99.1039 1.93481ZM110.937 214.523C110.937 221.01 105.931 226.472 99.4453 226.927C99.3315 226.927 99.2177 226.927 99.1039 226.927C98.8764 226.927 98.6488 226.927 98.4212 226.927H15.4742C15.2466 226.927 15.019 226.927 14.7915 226.927C14.6777 226.927 14.5639 226.927 14.4501 226.927C7.96454 226.472 2.95813 220.896 2.95813 214.523V15.5914C2.95813 8.99073 8.1921 3.52809 14.7915 3.07286C15.019 3.07286 15.2466 3.07286 15.4742 3.07286H98.4212C98.6488 3.07286 98.8764 3.07286 99.1039 3.07286C105.703 3.41428 110.937 8.87692 110.937 15.5914V214.523Z" fill="#404040"/>
<path d="M110.937 15.5918V214.523C110.937 215.775 110.709 216.913 110.368 218.051C110.14 218.961 109.685 219.872 109.23 220.669C109.116 220.782 109.003 221.01 108.889 221.124C108.775 221.351 108.548 221.579 108.434 221.807C107.979 222.489 107.41 223.058 106.841 223.627C107.979 221.693 108.548 219.53 108.548 217.141V214.864C108.548 214.751 108.548 214.637 108.548 214.409V15.5918C108.548 15.4779 108.548 15.3641 108.548 15.1365V12.8604C108.548 10.4705 107.979 8.30822 106.841 6.37354C109.344 8.76344 110.937 11.95 110.937 15.5918Z" fill="url(#paint4_linear_237_760)"/>
<path d="M99.1041 4.21094C98.8766 4.21094 98.649 4.21094 98.5352 4.21094H15.4744C15.2468 4.21094 15.133 4.21094 14.9055 4.21094C8.87502 4.55235 4.20996 9.55977 4.20996 15.4776V214.409C4.20996 220.327 8.76124 225.22 14.6779 225.676C14.7917 225.676 14.9055 225.676 14.9055 225.676C15.133 225.676 15.2468 225.676 15.4744 225.676H98.4214C98.649 225.676 98.7628 225.676 98.9904 225.676C99.1041 225.676 99.2179 225.676 99.3317 225.676C105.135 225.22 109.8 220.213 109.8 214.409V15.5914C109.8 9.55977 105.021 4.55235 99.1041 4.21094ZM106.728 214.523C106.728 216.457 106.045 218.164 105.021 219.53C104.907 219.644 104.907 219.644 104.793 219.758C104.566 219.985 104.452 220.213 104.224 220.441C103.997 220.668 103.883 220.782 103.655 220.896C103.428 221.123 103.2 221.237 102.859 221.465C102.631 221.692 102.29 221.806 102.062 221.92C101.949 222.034 101.721 222.034 101.607 222.148C101.494 222.261 101.266 222.261 101.152 222.375C100.811 222.489 100.583 222.603 100.242 222.603C99.9006 222.717 99.4455 222.717 99.1041 222.83H98.9904H98.8766H98.7628C98.649 222.83 98.649 222.83 98.5352 222.83H15.4744C15.3606 222.83 15.3606 222.83 15.2468 222.83C15.133 222.83 15.133 222.83 15.0192 222.83H14.9055C10.5818 222.489 7.28207 218.847 7.28207 214.523V15.5914C7.28207 11.2669 10.6955 7.62507 15.0192 7.28365H15.133H15.2468C15.3606 7.28365 15.4744 7.28365 15.5882 7.28365H98.5352C98.649 7.28365 98.7628 7.28365 98.8766 7.28365C98.8766 7.28365 98.8766 7.28365 98.9904 7.28365C99.1041 7.28365 99.1041 7.28365 99.2179 7.28365H99.3317C99.4455 7.28365 99.4455 7.28365 99.5593 7.28365C99.673 7.28365 99.7868 7.28365 99.7868 7.28365C99.9006 7.28365 100.014 7.28366 100.128 7.39747C100.128 7.39747 100.128 7.39747 100.242 7.39747C100.356 7.39747 100.47 7.39747 100.583 7.51128C100.697 7.51128 100.925 7.62509 101.038 7.62509C101.152 7.62509 101.266 7.73887 101.38 7.73887C101.494 7.73887 101.607 7.85268 101.721 7.85268C101.949 7.96648 102.176 8.08031 102.404 8.19411C102.631 8.30792 102.859 8.42171 102.973 8.53552L103.087 8.64933C103.2 8.64933 103.2 8.76314 103.314 8.76314C103.428 8.87695 103.542 8.87692 103.655 8.99073C103.883 9.10453 103.997 9.33214 104.224 9.44594C104.338 9.55975 104.452 9.67357 104.452 9.67357C104.566 9.78737 104.679 9.90119 104.679 9.90119C105.021 10.2426 105.362 10.6978 105.59 11.153C105.703 11.3806 105.817 11.6082 105.931 11.8359C106.045 12.0635 106.159 12.2911 106.272 12.5187C106.272 12.6325 106.386 12.7463 106.386 12.8601C106.5 13.0877 106.5 13.4291 106.614 13.6567C106.614 13.7705 106.614 13.8843 106.614 13.9981C106.728 14.3396 106.728 14.7948 106.728 15.25V214.523Z" fill="black"/>
<path d="M29.355 11.0392C29.355 11.0392 29.355 10.9255 29.2412 10.9255C29.2412 10.9255 29.2412 10.9255 29.2412 10.8118C29.355 10.9255 29.355 11.0392 29.355 11.0392Z" fill="black"/>
<path d="M84.6533 10.8118C84.6533 10.8118 84.6533 10.9255 84.6533 10.8118C84.6533 10.9255 84.5396 11.0392 84.5396 11.0392C84.6533 11.0392 84.6533 10.9255 84.6533 10.8118Z" fill="black"/>
<path d="M106.991 15.4149V214.534C106.991 216.471 106.308 218.18 105.284 219.547C105.17 219.66 105.17 219.66 105.056 219.774C104.829 220.002 104.715 220.23 104.488 220.458C104.26 220.686 104.146 220.8 103.919 220.913C103.691 221.141 103.463 221.255 103.122 221.483C102.895 221.711 102.553 221.825 102.326 221.939C102.212 222.053 101.984 222.053 101.871 222.167C101.757 222.281 101.529 222.281 101.415 222.394C101.074 222.508 100.846 222.622 100.505 222.622C100.164 222.736 99.7087 222.736 99.3673 222.85H99.2535H99.1398H99.026C98.9122 222.85 98.9122 222.85 98.7984 222.85H15.7376C15.6238 222.85 15.6238 222.85 15.51 222.85C15.3962 222.85 15.3962 222.85 15.2824 222.85H15.1687C10.4646 222.85 7 218.896 7 214.568V15.8156C7 11.4869 10.1997 7.0992 15.2824 7.0992H15.3962H15.51C15.6238 7.0992 15.7376 7.0992 15.8513 7.0992H27.7985C28.4811 7.0992 29.0603 7.11794 29.0603 7.80142L29.0501 8.46617C29.0501 8.69399 29.0501 8.9218 29.1638 9.26354C29.1638 9.37745 29.1638 9.37746 29.1638 9.49137C29.1638 9.60529 29.1638 9.71919 29.2776 9.8331C29.2776 9.94701 29.2776 10.0609 29.3914 10.0609C29.3914 10.0609 29.3914 10.0609 29.3914 10.1749C29.3914 10.1749 29.3914 10.1749 29.3914 10.2888V10.4027V10.5166C29.3914 10.6305 29.5052 10.6305 29.5052 10.7444C29.5052 10.8583 29.619 10.8583 29.619 10.9722C29.619 11.0861 29.7327 11.0862 29.7327 11.2001C29.7327 11.2001 29.7327 11.314 29.8465 11.314C29.8465 11.314 29.8465 11.314 29.8465 11.4279C29.8465 11.4279 29.8465 11.5418 29.9603 11.5418C29.9603 11.5418 29.9603 11.5418 29.9603 11.6557C29.9603 11.6557 29.9603 11.6557 29.9603 11.7696C29.9603 11.7696 29.9603 11.7696 29.9603 11.8836C29.9603 11.8836 29.9603 11.8836 29.9603 11.9975C29.9603 11.9975 29.9603 11.9974 30.0741 12.1114C30.0741 12.1114 30.0741 12.2253 30.1879 12.2253C30.1879 12.2253 30.1879 12.3392 30.3017 12.3392C30.3017 12.3392 30.3017 12.3392 30.3017 12.4531L30.4154 12.567C30.4154 12.567 30.4154 12.567 30.4154 12.6809C30.4154 12.6809 30.4154 12.6809 30.5292 12.7948C30.5292 12.7948 30.5292 12.7948 30.643 12.9088C30.643 12.9088 30.643 12.9088 30.7568 13.0227L30.8706 13.1366L30.9843 13.2505C30.9843 13.2505 30.9843 13.2505 31.0981 13.3644C31.2119 13.4783 31.0981 13.3644 31.2119 13.4783C31.2119 13.4783 31.3257 13.4783 31.3257 13.5922L31.4395 13.7062C31.4395 13.7062 31.5533 13.7061 31.5533 13.82C31.5533 13.82 31.5533 13.8201 31.667 13.934C31.667 13.934 31.7808 13.934 31.7808 14.0479C31.7808 14.0479 31.7808 14.0479 31.8946 14.0479C31.8946 14.0479 32.0084 14.0479 32.0084 14.1618L32.1222 14.2757C32.236 14.2757 32.236 14.3896 32.3497 14.3896C32.3497 14.3896 32.3497 14.3896 32.4635 14.3896C32.4635 14.3896 32.5773 14.3896 32.5773 14.5035C32.5773 14.5035 32.6911 14.5035 32.6911 14.6175H32.8049C32.8049 14.6175 32.8049 14.6175 32.9186 14.6175C33.0324 14.6175 33.0324 14.7314 33.1462 14.7314H33.26H33.3738H33.4876C33.6013 14.7314 33.6013 14.7314 33.7151 14.7314C33.8289 14.7314 33.9427 14.7314 33.9427 14.8453C34.0565 14.8453 34.0565 14.8453 34.1702 14.8453H34.284C34.3978 14.8453 34.3978 14.8453 34.5116 14.8453H34.6254C34.6254 14.8453 34.6254 14.8453 34.7392 14.8453H34.8529C34.9667 14.8453 34.9667 14.8453 35.0805 14.8453C35.0805 14.8453 35.0805 14.8453 35.1943 14.8453H78.7728H78.8866C79.0003 14.8453 79.0003 14.8453 79.1141 14.8453H79.2279C79.2279 14.8453 79.2279 14.8453 79.3417 14.8453H79.4555C79.5693 14.8453 79.5693 14.8453 79.683 14.8453H79.7968C79.9106 14.8453 79.9106 14.8453 80.0244 14.8453C80.1382 14.8453 80.2519 14.8453 80.2519 14.7314C80.3657 14.7314 80.3657 14.7314 80.4795 14.7314H80.5933H80.7071H80.8209C80.9346 14.7314 80.9346 14.6175 81.0484 14.6175C81.0484 14.6175 81.0484 14.6175 81.1622 14.6175H81.276C81.276 14.6175 81.3898 14.6174 81.3898 14.5035C81.3898 14.5035 81.5035 14.5035 81.5035 14.3896C81.5035 14.3896 81.5035 14.3896 81.6173 14.3896C81.7311 14.3896 81.7311 14.2757 81.8449 14.2757C81.8449 14.2757 81.9587 14.2757 81.9587 14.1618C81.9587 14.1618 82.0725 14.1618 82.0725 14.0479C82.0725 14.0479 82.0724 14.0479 82.1862 14.0479C82.1862 14.0479 82.3 14.0479 82.3 13.934C82.3 13.934 82.3 13.934 82.4138 13.82C82.4138 13.82 82.5276 13.8201 82.5276 13.7062L82.6414 13.5922C82.6414 13.5922 82.7551 13.5922 82.7551 13.4783C82.7551 13.4783 82.7551 13.4783 82.8689 13.3644C82.8689 13.3644 82.8689 13.3644 82.9827 13.2505L83.0965 13.1366L83.2103 13.0227C83.2103 13.0227 83.2103 13.0227 83.3241 12.9088C83.3241 12.9088 83.3241 12.9088 83.4378 12.7948C83.4378 12.7948 83.4378 12.7948 83.5516 12.6809L83.6654 12.567C83.6654 12.567 83.6654 12.567 83.6654 12.4531C83.6654 12.4531 83.6654 12.3392 83.7792 12.3392C83.7792 12.3392 83.7792 12.2253 83.893 12.2253C83.893 12.2253 83.893 12.2253 84.0068 12.1114C84.0068 12.1114 84.0068 12.1114 84.0068 11.9975C84.0068 11.9975 84.0068 11.9975 84.0068 11.8836C84.0068 11.8836 84.0068 11.8835 84.0068 11.7696C84.0068 11.7696 84.0068 11.7696 84.0068 11.6557C84.0068 11.6557 84.0067 11.5418 84.1205 11.5418C84.1205 11.5418 84.1205 11.5418 84.1205 11.4279L84.2343 11.314C84.2343 11.2001 84.3481 11.2001 84.3481 11.0861C84.3481 10.9722 84.4619 10.9723 84.4619 10.8583C84.4619 10.7444 84.5757 10.7444 84.5757 10.6305V10.5166V10.4027C84.5757 10.4027 84.5757 10.4027 84.5757 10.2888C84.5757 10.2888 84.5757 10.2888 84.5757 10.1749C84.5757 10.0609 84.5757 9.94702 84.6894 9.94702C84.6894 9.83311 84.6894 9.71921 84.8032 9.60529C84.8032 9.49138 84.8032 9.49137 84.8032 9.37746C84.8032 9.14963 84.917 8.92182 84.917 8.58009V8.46617C85.0308 7.78269 85.5096 7 86.1923 7H98.1911C98.0773 7 98.3049 7 98.1911 7H98.991C99.1048 7 99.6772 7 99.7909 7C99.6772 7 99.9047 7 99.7909 7C99.9047 7 100.265 7.21313 100.378 7.32704C100.378 7.32704 100.391 7.32704 100.505 7.32704C100.619 7.32704 100.733 7.32705 100.846 7.44096C100.96 7.44096 101.188 7.55484 101.302 7.55484C101.415 7.55484 101.529 7.66876 101.643 7.66876C101.757 7.66876 101.871 7.78268 101.984 7.78268C102.212 7.8966 102.439 8.01049 102.667 8.12441C102.895 8.23832 103.122 8.35225 103.236 8.46617L103.35 8.58009C103.463 8.58009 103.463 8.69397 103.577 8.69397C103.691 8.80788 103.805 8.8079 103.919 8.92181C104.146 9.03572 104.26 9.26354 104.488 9.37746C104.601 9.49137 104.715 9.60529 104.715 9.60529C104.829 9.71921 104.943 9.8331 104.943 9.8331C105.284 10.1748 105.625 10.6305 105.853 11.0861C105.967 11.314 106.08 11.5418 106.194 11.7696C106.308 11.9975 106.422 12.2253 106.536 12.4531C106.536 12.567 106.649 12.6809 106.649 12.7948C106.763 13.0227 106.763 13.3644 106.877 13.5922C106.877 13.7062 106.877 13.8201 106.877 13.934C106.991 14.5035 106.991 14.9592 106.991 15.4149Z" fill="#2E3239"/>
<path d="M86.4742 7.28325C85.7915 7.28325 85.2226 7.85228 85.2226 8.53511C85.2226 8.64891 85.2226 8.64893 85.2226 8.76273C85.2226 8.99034 85.2226 9.21793 85.1088 9.55935C85.1088 9.67315 85.1088 9.67317 85.1088 9.78697C85.1088 9.90078 85.1088 10.0146 84.995 10.1284C84.995 10.2422 84.995 10.356 84.8812 10.356C84.8812 10.356 84.8812 10.356 84.8812 10.4698C84.8812 10.4698 84.8812 10.4698 84.8812 10.5836V10.6974V10.8112C84.8812 10.925 84.7675 10.925 84.7675 11.0388C84.7675 11.1526 84.6537 11.1526 84.6537 11.2664C84.6537 11.3802 84.5399 11.3802 84.5399 11.494C84.5399 11.494 84.5399 11.6079 84.4261 11.6079C84.4261 11.6079 84.4261 11.6078 84.4261 11.7216C84.4261 11.7216 84.4261 11.8354 84.3123 11.8354C84.3123 11.8354 84.3123 11.8355 84.3123 11.9493C84.3123 11.9493 84.3123 11.9493 84.3123 12.0631C84.3123 12.0631 84.3123 12.0631 84.3123 12.1769C84.3123 12.1769 84.3123 12.1769 84.3123 12.2907C84.3123 12.2907 84.3123 12.2907 84.1985 12.4045C84.1985 12.4045 84.1986 12.5183 84.0848 12.5183C84.0848 12.5183 84.0848 12.6321 83.971 12.6321L83.8572 12.7459L83.7434 12.8597C83.7434 12.8597 83.7434 12.8597 83.6296 12.9735C83.6296 12.9735 83.6296 12.9735 83.5159 13.0873C83.5159 13.0873 83.5159 13.0873 83.4021 13.2011L83.2883 13.3149L83.1745 13.4287C83.1745 13.4287 83.1745 13.4287 83.0607 13.5425L82.9469 13.6563L82.8332 13.7701C82.8332 13.7701 82.7194 13.7702 82.7194 13.884C82.7194 13.884 82.6056 13.8839 82.6056 13.9977C82.6056 13.9977 82.4918 13.9977 82.4918 14.1115C82.378 14.1115 82.378 14.2254 82.2643 14.2254L82.1505 14.3392C82.0367 14.3392 82.0367 14.453 81.9229 14.453C81.9229 14.453 81.9229 14.453 81.8091 14.453C81.8091 14.453 81.6954 14.453 81.6954 14.5668C81.6954 14.5668 81.5816 14.5668 81.5816 14.6806H81.4678C81.4678 14.6806 81.4678 14.6806 81.354 14.6806C81.2402 14.6806 81.1264 14.7944 81.0126 14.7944C80.8989 14.7944 80.7851 14.9082 80.7851 14.9082C80.6713 14.9082 80.5575 15.022 80.4437 15.022C80.2162 15.022 79.9886 15.1358 79.7611 15.1358C79.6473 15.1358 79.5335 15.1358 79.5335 15.1358C79.4197 15.1358 79.4197 15.1358 79.3059 15.1358C79.1921 15.1358 79.0784 15.1358 79.0784 15.1358H78.9646H35.2723C35.2723 15.1358 35.2723 15.1358 35.1585 15.1358C35.0447 15.1358 34.9309 15.1358 34.9309 15.1358C34.8172 15.1358 34.8172 15.1358 34.7034 15.1358C34.5896 15.1358 34.4758 15.1358 34.4758 15.1358C34.2483 15.1358 34.0207 15.022 33.7931 15.022C33.6793 15.022 33.5656 15.022 33.4518 14.9082C33.338 14.9082 33.2242 14.7944 33.2242 14.7944C33.1104 14.7944 32.9967 14.6806 32.8829 14.6806C32.8829 14.6806 32.8829 14.6806 32.7691 14.6806H32.6553C32.6553 14.6806 32.5415 14.6806 32.5415 14.5668C32.5415 14.5668 32.4277 14.5668 32.4277 14.453C32.4277 14.453 32.4277 14.453 32.314 14.453C32.2002 14.453 32.2002 14.3392 32.0864 14.3392C32.0864 14.3392 31.9726 14.3392 31.9726 14.2254C31.8588 14.2254 31.8588 14.1115 31.7451 14.1115C31.7451 14.1115 31.6313 14.1115 31.6313 13.9977C31.6313 13.9977 31.5175 13.9978 31.5175 13.884C31.5175 13.884 31.4037 13.884 31.4037 13.7701L31.2899 13.6563L31.1761 13.5425C31.1761 13.5425 31.1761 13.5425 31.0624 13.4287L30.9486 13.3149L30.8348 13.2011C30.8348 13.2011 30.8348 13.2011 30.721 13.0873C30.721 13.0873 30.721 13.0873 30.6072 12.9735C30.6072 12.9735 30.6072 12.9735 30.4934 12.8597C30.4934 12.8597 30.4934 12.8597 30.4934 12.7459C30.4934 12.6321 30.3797 12.6321 30.3797 12.5183C30.3797 12.5183 30.3797 12.4045 30.2659 12.4045C30.2659 12.4045 30.2659 12.2907 30.1521 12.2907C30.1521 12.2907 30.1521 12.2907 30.0383 12.1769C30.0383 12.1769 30.0383 12.1769 30.0383 12.0631C30.0383 12.0631 30.0383 12.0631 30.0383 11.9493C30.0383 11.9493 30.0383 11.9493 30.0383 11.8354C30.0383 11.8354 30.0383 11.8354 30.0383 11.7216C30.0383 11.7216 30.0383 11.6079 29.9245 11.6079C29.9245 11.6079 29.9245 11.6079 29.9245 11.494L29.8108 11.3802C29.8108 11.2664 29.697 11.2664 29.697 11.1526C29.697 11.0388 29.5832 11.0388 29.5832 10.925C29.5832 10.8112 29.4694 10.8112 29.4694 10.6974V10.5836V10.4698C29.4694 10.4698 29.4694 10.4698 29.4694 10.356C29.4694 10.356 29.4694 10.356 29.4694 10.2422C29.4694 10.1284 29.4694 10.0146 29.3556 10.0146C29.3556 9.90076 29.3556 9.78696 29.2418 9.67316C29.2418 9.55935 29.2418 9.55934 29.2418 9.44553C29.2418 9.21792 29.1281 8.99034 29.1281 8.64892C29.1281 8.53512 29.1281 8.5351 29.1281 8.4213C29.0143 7.73847 28.5592 7.16943 27.8765 7.16943H86.4742V7.28325Z" fill="black"/>
<path d="M29.356 11.0392C29.356 11.0392 29.356 10.9255 29.2422 10.9255C29.2422 10.9255 29.2422 10.9255 29.2422 10.8118C29.356 10.9255 29.356 11.0392 29.356 11.0392Z" fill="black"/>
<path d="M30.4937 12.7457C30.3799 12.632 30.3799 12.632 30.4937 12.7457C30.3799 12.632 30.3799 12.632 30.3799 12.5183C30.3799 12.632 30.3799 12.632 30.4937 12.7457Z" fill="black"/>
<path d="M30.6081 12.8603C30.4933 12.7456 30.4933 12.8603 30.6081 12.8603C30.4933 12.7456 30.4933 12.8603 30.6081 12.8603Z" fill="black"/>
<path d="M31.2896 13.5431L31.1758 13.4292C31.1758 13.4292 31.062 13.4293 31.062 13.3155C31.062 13.3155 31.062 13.3155 30.9482 13.2017L31.062 13.3155C31.2896 13.4293 31.2896 13.5431 31.2896 13.5431Z" fill="black"/>
<path d="M31.8584 13.8842C31.7446 13.7705 31.7446 13.7705 31.7446 13.7705C31.7446 13.7705 31.7446 13.7705 31.6309 13.7705C31.7446 13.8842 31.8584 13.8842 31.8584 13.8842Z" fill="black"/>
<path d="M33.1104 14.5666C32.9966 14.5666 32.9966 14.4529 32.8828 14.4529C32.8828 14.4529 32.9966 14.4529 33.1104 14.5666Z" fill="black"/>
<path d="M33.4522 14.6807C33.566 14.6807 33.6797 14.7944 33.7935 14.7944C33.6797 14.6807 33.566 14.6807 33.4522 14.6807H33.3384H33.2246C33.2246 14.567 33.3384 14.567 33.4522 14.6807Z" fill="black"/>
<path d="M34.3619 14.7944C34.4757 14.7944 34.5894 14.7944 34.5894 14.7944C34.5894 14.9081 34.4757 14.9081 34.3619 14.7944C34.3619 14.9081 34.3619 14.9081 34.3619 14.7944C34.1343 14.7944 34.1343 14.7944 34.0205 14.7944C33.9067 14.7944 33.793 14.7944 33.793 14.6807C33.9068 14.7944 34.1343 14.7944 34.3619 14.7944Z" fill="black"/>
<path d="M79.5332 14.7944C79.7608 14.7944 79.9884 14.6807 80.2159 14.6807C80.1021 14.6807 79.9884 14.6807 79.9884 14.7944C79.8746 14.7944 79.7608 14.7944 79.5332 14.7944C79.647 14.7944 79.647 14.7944 79.5332 14.7944C79.5332 14.9081 79.5332 14.9081 79.5332 14.7944C79.4195 14.7944 79.3057 14.7944 79.3057 14.7944C79.4194 14.9081 79.5332 14.9081 79.5332 14.7944Z" fill="black"/>
<path d="M80.7847 14.5666H80.6709H80.5572H80.4434C80.3296 14.5666 80.3296 14.5666 80.2158 14.5666C80.3296 14.5666 80.4434 14.5666 80.5572 14.4529C80.671 14.5666 80.6709 14.5666 80.7847 14.5666Z" fill="black"/>
<path d="M80.7852 14.5671C80.8993 14.5671 81.0135 14.4529 81.1277 14.4529C81.0135 14.4529 80.8993 14.4529 80.7852 14.5671Z" fill="black"/>
<path d="M82.0366 13.8842C82.1504 13.8842 82.1504 13.7705 82.2642 13.7705C82.2642 13.7705 82.2642 13.7705 82.1504 13.7705C82.1504 13.8842 82.1504 13.8842 82.0366 13.8842C82.1504 13.8842 82.0366 13.8842 82.0366 13.8842Z" fill="black"/>
<path d="M82.9473 13.3152C82.8335 13.3152 82.9473 13.3152 82.9473 13.3152C82.8335 13.4289 82.8335 13.4289 82.8335 13.4289L82.7197 13.5426L82.8335 13.4289C82.8335 13.3152 82.8335 13.3152 82.9473 13.3152Z" fill="black"/>
<path d="M83.6284 12.5183C83.5156 12.631 83.5156 12.631 83.5156 12.631C83.6284 12.631 83.6284 12.5183 83.6284 12.5183Z" fill="black"/>
<path d="M83.858 12.2908C83.7425 12.4061 83.858 12.2908 83.858 12.2908C83.7425 12.4061 83.858 12.2908 83.858 12.2908Z" fill="black"/>
<path d="M84.6538 10.8118C84.6538 10.8118 84.6538 10.9255 84.6538 10.8118C84.6538 10.9255 84.54 11.0392 84.54 11.0392C84.6538 11.0392 84.6538 10.9255 84.6538 10.8118Z" fill="black"/>
<path d="M108.662 214.977V217.254C108.662 219.643 108.093 221.806 106.955 223.74C104.907 225.561 102.404 226.813 99.4453 227.041C99.3316 227.041 99.2178 227.041 99.104 227.041C98.8764 227.041 98.6489 227.041 98.4213 227.041H15.4743C15.2467 227.041 15.0191 227.041 14.7916 227.041C14.6778 227.041 14.564 227.041 14.4502 227.041C14.3364 227.041 14.1089 227.041 13.9951 227.041C11.2643 226.699 8.8749 225.561 7.05439 223.854C5.91657 221.92 5.34766 219.757 5.34766 217.367V214.636C5.34766 217.709 6.71304 220.44 8.8749 222.375C10.4678 223.74 12.5159 224.651 14.6778 224.765C14.7916 224.765 14.7916 224.765 14.9053 224.765C15.1329 224.765 15.2467 224.765 15.4743 224.765H98.4213C98.6489 224.765 98.7626 224.765 98.9902 224.765C99.104 224.765 99.104 224.765 99.2178 224.765C104.338 224.309 108.434 220.099 108.662 214.977Z" fill="url(#paint5_linear_237_760)"/>
<path d="M110.937 15.5913C110.937 8.87681 105.703 3.41417 99.104 3.07275C98.8764 3.07275 98.6489 3.07275 98.4213 3.07275H15.4743C15.2467 3.07275 15.0191 3.07275 14.7916 3.07275C14.564 3.07275 14.2227 3.07273 13.9951 3.18653C11.2643 3.52795 8.8749 4.66602 7.05439 6.37309C5.91657 8.30778 5.34766 10.4701 5.34766 12.86V15.5913C5.34766 12.5186 6.71304 9.67343 8.8749 7.85255C10.4678 6.48688 12.6297 5.57644 14.9053 5.46263H15.0191C15.2467 5.46263 15.3605 5.46263 15.4743 5.46263H98.4213C98.5351 5.46263 98.6489 5.46263 98.8765 5.46263H98.9902C104.224 5.69024 108.434 10.0148 108.662 15.2499V12.9738C108.662 10.5839 108.093 8.42159 106.955 6.48691C109.344 8.76301 110.937 11.9495 110.937 15.5913Z" fill="url(#paint6_linear_237_760)"/>
<path d="M7.05415 223.627C4.55094 221.351 3.07178 218.051 3.07178 214.523V15.5918C3.07178 11.95 4.66472 8.64964 7.05415 6.37354C5.91633 8.30822 5.34742 10.4705 5.34742 12.8604V217.254C5.34742 219.53 5.91633 221.807 7.05415 223.627Z" fill="url(#paint7_linear_237_760)"/>
<path d="M110.937 15.5917V214.523C110.937 215.775 110.709 216.913 110.368 218.051C110.14 218.961 109.685 219.872 109.23 220.668C109.116 220.782 109.003 221.01 108.889 221.124C108.775 221.351 108.548 221.579 108.434 221.807C107.979 222.489 107.41 223.058 106.841 223.627C107.979 221.693 108.548 219.53 108.548 217.14V12.9742C108.548 10.5843 107.979 8.42199 106.841 6.4873C109.344 8.76341 110.937 11.9499 110.937 15.5917Z" fill="url(#paint8_linear_237_760)"/>
<path d="M62.9213 9.55949H50.4053C50.1777 9.55949 50.064 9.4457 50.064 9.21809V8.53525C50.064 8.30764 50.1777 8.19385 50.4053 8.19385H62.9213C63.1489 8.19385 63.2627 8.30764 63.2627 8.53525V9.21809C63.2627 9.33189 63.0351 9.55949 62.9213 9.55949Z" fill="url(#paint9_linear_237_760)"/>
<defs>
<linearGradient id="paint0_linear_237_760" x1="0.435735" y1="115.003" x2="2.1056" y2="115.003" gradientUnits="userSpaceOnUse">
<stop stop-color="#666666"/>
<stop offset="0.0574701" stop-color="#727272"/>
<stop offset="0.3311" stop-color="#A8A8A8"/>
<stop offset="0.5675" stop-color="#D0D0D0"/>
<stop offset="0.7551" stop-color="#E8E8E8"/>
<stop offset="0.8704" stop-color="#F1F1F1"/>
<stop offset="0.9471" stop-color="#F7F7F7"/>
<stop offset="1" stop-color="white"/>
</linearGradient>
<linearGradient id="paint1_linear_237_760" x1="112.116" y1="115.014" x2="113.771" y2="115.014" gradientUnits="userSpaceOnUse">
<stop stop-color="white"/>
<stop offset="0.052919" stop-color="#F7F7F7"/>
<stop offset="0.1296" stop-color="#F1F1F1"/>
<stop offset="0.2449" stop-color="#E8E8E8"/>
<stop offset="0.4325" stop-color="#D0D0D0"/>
<stop offset="0.6689" stop-color="#A8A8A8"/>
<stop offset="0.9425" stop-color="#727272"/>
<stop offset="1" stop-color="#666666"/>
</linearGradient>
<linearGradient id="paint2_linear_237_760" x1="56.9778" y1="229.595" x2="56.9778" y2="216.371" gradientUnits="userSpaceOnUse">
<stop stop-color="#F1F1F1"/>
<stop offset="0.1164" stop-color="#E3E3E3"/>
<stop offset="0.3358" stop-color="#BFBFBF"/>
<stop offset="0.6347" stop-color="#848484"/>
<stop offset="1" stop-color="#333333"/>
</linearGradient>
<linearGradient id="paint3_linear_237_760" x1="56.9778" y1="13.0915" x2="56.9778" y2="-3.41966" gradientUnits="userSpaceOnUse">
<stop stop-color="#333333"/>
<stop offset="0.0736026" stop-color="#4C4C4C"/>
<stop offset="0.2508" stop-color="#828282"/>
<stop offset="0.4239" stop-color="#AFAFAF"/>
<stop offset="0.5891" stop-color="#D2D2D2"/>
<stop offset="0.7442" stop-color="#EBEBEB"/>
<stop offset="0.8854" stop-color="#FAFAFA"/>
<stop offset="1" stop-color="white"/>
</linearGradient>
<linearGradient id="paint4_linear_237_760" x1="106.907" y1="115.09" x2="110.927" y2="115.09" gradientUnits="userSpaceOnUse">
<stop stop-color="#F1F1F1"/>
<stop offset="0.00119236" stop-color="#F0F0F0"/>
<stop offset="0.1385" stop-color="#B7B7B7"/>
<stop offset="0.2715" stop-color="#888888"/>
<stop offset="0.397" stop-color="#636363"/>
<stop offset="0.5134" stop-color="#494949"/>
<stop offset="0.6172" stop-color="#393939"/>
<stop offset="0.6978" stop-color="#333333"/>
</linearGradient>
<linearGradient id="paint5_linear_237_760" x1="5.33321" y1="220.824" x2="108.625" y2="220.824" gradientUnits="userSpaceOnUse">
<stop/>
<stop offset="0.1045" stop-color="#141414"/>
<stop offset="0.2593" stop-color="#2C2C2C"/>
<stop offset="0.4027" stop-color="#3B3B3B"/>
<stop offset="0.5229" stop-color="#404040"/>
<stop offset="0.6306" stop-color="#393939"/>
<stop offset="0.7927" stop-color="#242424"/>
<stop offset="0.9882" stop-color="#020202"/>
<stop offset="1"/>
</linearGradient>
<linearGradient id="paint6_linear_237_760" x1="5.33321" y1="9.36731" x2="110.936" y2="9.36731" gradientUnits="userSpaceOnUse">
<stop/>
<stop offset="0.1045" stop-color="#141414"/>
<stop offset="0.2593" stop-color="#2C2C2C"/>
<stop offset="0.4027" stop-color="#3B3B3B"/>
<stop offset="0.5229" stop-color="#404040"/>
<stop offset="0.6306" stop-color="#393939"/>
<stop offset="0.7927" stop-color="#242424"/>
<stop offset="0.9882" stop-color="#020202"/>
<stop offset="1"/>
</linearGradient>
<linearGradient id="paint7_linear_237_760" x1="3.02524" y1="115.021" x2="5.41011" y2="115.021" gradientUnits="userSpaceOnUse">
<stop stop-color="#404040"/>
<stop offset="0.644" stop-color="#1A1A1A"/>
<stop offset="1" stop-color="#0A0A0A"/>
</linearGradient>
<linearGradient id="paint8_linear_237_760" x1="106.895" y1="115.101" x2="110.927" y2="115.101" gradientUnits="userSpaceOnUse">
<stop stop-color="#0A0A0A"/>
<stop offset="0.356" stop-color="#1A1A1A"/>
<stop offset="1" stop-color="#404040"/>
</linearGradient>
<linearGradient id="paint9_linear_237_760" x1="50.0114" y1="8.81806" x2="63.2477" y2="8.81806" gradientUnits="userSpaceOnUse">
<stop stop-color="#333333"/>
<stop offset="0.0901238" stop-color="#2B2B2B"/>
<stop offset="0.2885" stop-color="#1E1E1E"/>
<stop offset="0.4787" stop-color="#1A1A1A"/>
<stop offset="0.7885" stop-color="#1C1C1C"/>
<stop offset="0.8999" stop-color="#232323"/>
<stop offset="0.9792" stop-color="#2E2E2E"/>
<stop offset="1" stop-color="#333333"/>
</linearGradient>
</defs>
</svg>
